<svg width="20" height="20" xmlns="http://www.w3.org/2000/svg">

 <g>
  <title>background</title>
  <rect fill="none" id="canvas_background" height="22" width="22" y="-1" x="-1"/>
 </g>
 <g>
  <title>Layer 1</title>
  <path stroke="null" id="svg_1" d="m18.158045,8.827586l-6.767241,0l0,-6.767241c0,-0.747103 -0.606345,-1.353448 -1.353448,-1.353448s-1.353448,0.606345 -1.353448,1.353448l0,6.767241l-6.767241,0c-0.747103,0 -1.353448,0.606345 -1.353448,1.353448s0.606345,1.353448 1.353448,1.353448l6.767241,0l0,6.767241c0,0.747103 0.606345,1.353448 1.353448,1.353448s1.353448,-0.606345 1.353448,-1.353448l0,-6.767241l6.767241,0c0.747103,0 1.353448,-0.606345 1.353448,-1.353448s-0.606345,-1.353448 -1.353448,-1.353448z"/>
 </g>
</svg>