<svg width="20" height="20" xmlns="http://www.w3.org/2000/svg">
    <path stroke="null" id="svg_2" d="m9.921916,1.120034c-4.928663,0 -8.924985,3.996321 -8.924985,8.924985c0,4.928663 3.996321,8.924985 8.924985,8.924985c4.928663,0 8.924985,-3.996321 8.924985,-8.924985c0,-4.928663 -3.996321,-8.924985 -8.924985,-8.924985zm4.315071,11.933183c0.059766,0.059766 0.09164,0.139453 0.09164,0.223125c0,0.083672 -0.031875,0.167343 -0.09164,0.223125l-0.860624,0.864608c-0.06375,0.06375 -0.143437,0.09164 -0.223125,0.09164c-0.079687,0 -0.163359,-0.031875 -0.223125,-0.09164l-3.008198,-3.012182l-3.004214,3.016167c-0.059766,0.06375 -0.143437,0.09164 -0.223125,0.09164c-0.079687,0 -0.163359,-0.031875 -0.223125,-0.09164l-0.860624,-0.864608c-0.059766,-0.059766 -0.09164,-0.139453 -0.09164,-0.223125c0,-0.083672 0.031875,-0.167343 0.09164,-0.223125l3.016167,-3.02812l-3.024135,-2.988276c-0.123515,-0.123515 -0.123515,-0.326718 0,-0.450234l0.860624,-0.864608c0.059766,-0.059766 0.139453,-0.09164 0.223125,-0.09164c0.083672,0 0.163359,0.031875 0.223125,0.09164l3.016167,2.976323l3.016167,-2.976323c0.059766,-0.059766 0.139453,-0.09164 0.223125,-0.09164c0.083672,0 0.163359,0.031875 0.223125,0.09164l0.860624,0.864608c0.123515,0.123515 0.123515,0.326718 0,0.450234l-3.024135,2.988276l3.012182,3.024135z"/>
</svg>